<svg width="355" height="345" viewBox="0 0 355 345" fill="none" xmlns="http://www.w3.org/2000/svg">
<path fill-rule="evenodd" clip-rule="evenodd" d="M165.736 253.416L94.3702 184.214C102.216 171.474 110.034 158.3 117.795 145.22C143.601 101.732 168.795 59.276 192.397 37.1931C256.491 -24.9581 344.284 11.0791 344.284 11.0791C344.284 11.0791 381.449 96.2104 317.353 158.361C294.768 181.059 251.674 205.123 207.169 229.975C193.303 237.717 179.298 245.538 165.736 253.416ZM220.094 92.5558C220.094 71.0452 238.078 53.6075 260.262 53.6075C282.444 53.6075 300.428 71.0452 300.428 92.5558C300.428 114.066 282.444 131.504 260.262 131.504C238.078 131.504 220.094 114.066 220.094 92.5558ZM116.209 86.8464C80.2024 77.5554 46.4164 94.759 16.4387 121.423C10.4089 126.786 11.6682 136.167 18.677 140.261L67.0595 168.524L67.1154 168.432C74.0948 157.1 81.8962 143.972 89.8005 130.672C98.8259 115.484 107.988 100.067 116.209 86.8464ZM181.918 279.897L211.064 326.811C215.286 333.608 224.961 334.829 230.492 328.983C257.999 299.904 275.742 267.132 266.141 232.203C252.901 239.94 238.979 247.73 225.188 255.433L223.084 256.607C209.154 264.386 195.369 272.084 182.048 279.821L181.918 279.897ZM66.0666 230.752C72.886 230.635 79.6597 231.851 85.9839 234.328C92.3079 236.805 98.0529 240.492 102.876 245.169C107.698 249.845 111.5 255.415 114.055 261.549C116.609 267.681 117.864 274.248 117.743 280.862C117.623 287.474 116.13 293.994 113.355 300.037C110.593 306.048 106.617 311.46 101.663 315.954C96.0312 321.185 87.2189 325.275 79.049 328.422C70.3379 331.781 60.3981 334.78 51.1177 337.235C41.8063 339.7 32.913 341.682 26.1969 342.975C22.8617 343.615 19.9197 344.115 17.6647 344.413C16.5822 344.556 15.3865 344.689 14.283 344.735C13.7827 344.758 12.8785 344.785 11.8445 344.689C11.3488 344.642 10.3892 344.531 9.24808 344.201C8.49483 343.982 5.56874 343.118 3.13101 340.36C1.04305 337.998 0.474616 335.533 0.337676 334.94C0.118157 333.989 0.05105 333.184 0.0256557 332.756C-0.027025 331.869 0.0128061 331.084 0.0439777 330.616C0.111598 329.604 0.255653 328.488 0.412371 327.444C0.736752 325.28 1.26376 322.45 1.93885 319.225C3.2967 312.736 5.35827 304.152 7.91246 295.162C10.4577 286.201 13.5577 276.607 17.0235 268.195C20.2761 260.301 24.4933 251.793 29.8768 246.344C34.5123 241.54 40.0937 237.685 46.2917 235.007C52.5217 232.316 59.2472 230.868 66.0666 230.752Z" fill="white"/>
</svg>
